<svg width="351" height="390" viewBox="0 0 351 390" fill="none" xmlns="http://www.w3.org/2000/svg">
<path d="M0.637288 10.4461C2.47004 4.67538 12.5539 0.276773 50.8091 0.857873C98.8107 1.58425 130.645 9.22735 185.963 21.3578C234.004 31.8904 269.947 39.267 311.065 61.4296C321.796 67.2084 332.623 73.8588 340.634 86.4009C355.783 110.105 350.168 138.087 343.544 168.837C337.446 197.125 327.772 219.167 308.677 262.095C301.941 277.228 289.912 303.475 271.519 335.476C251.221 370.778 239 391.65 229.188 389.574C215.709 386.717 214.692 342.222 214.627 338.227C213.691 282.013 241.265 266.56 243.29 210.765C244.008 190.862 244.921 165.721 230.206 142.033C217.709 121.921 200.332 113.148 136.138 86.8851C117.398 79.2178 98.6182 71.6796 79.7806 64.2545C70.8969 60.7598 61.9982 57.3216 53.1094 53.8432C40.1527 48.7746 28.6886 43.0361 17.6921 34.4568C11.7388 29.8242 -2.30561 19.6871 0.637288 10.4461Z" fill="#85D460"/>
</svg>
